<svg width="384" height="249" viewBox="0 0 384 249" fill="none" xmlns="http://www.w3.org/2000/svg">
<g clip-path="url(#clip0_65_868)">
<path fill-rule="evenodd" clip-rule="evenodd" d="M123.325 104.649H238.505V91.9213H193.128V69.7739H260.675V126.801H123.325V104.654V104.649ZM158.224 69.7641V34.8796H260.675V57.0269H180.408V91.9114H123.325V0H145.485V69.7641H158.224ZM158.224 0H260.675V22.1473H158.249V0H158.224Z" fill="white"/>
<path fill-rule="evenodd" clip-rule="evenodd" d="M24.9369 166.381V187.052C24.9369 193.243 21.741 197.008 16.1124 197.008C10.4839 197.008 6.75619 193.563 6.75619 187.052V166.381H0V187.052C0 197.933 7.38651 203.194 16.0533 203.194C25.1338 203.194 31.6881 197.727 31.6881 187.052V166.381H24.9369ZM66.8331 188.7L49.1351 166.277H43.6099V202.437H50.4252V178.055L69.4332 202.437H73.6632V166.277H66.8331V188.7ZM91.4548 202.437V166.277H84.6986V202.437H91.4548ZM113.585 202.437H120.4V172.469H131.859V166.277H102.116V172.469H113.57V202.437H113.585ZM167.649 195.733H147.366V187.583H166.935V181.239H147.366V172.872H167.649V166.277H140.605V202.437H167.649V195.733ZM191.38 166.277H177.188V202.437H191.38C204.02 202.437 209.6 193.204 209.442 184.049C209.289 175.097 203.764 166.277 191.38 166.277ZM183.949 172.749H191.38C199.224 172.749 202.528 178.38 202.681 184.02C202.834 189.926 199.583 195.91 191.38 195.91H183.949V172.749ZM256.036 195.733H235.753V187.583H255.312V181.239H235.753V172.872H256.036V166.277H228.982V202.437H256.026V195.733H256.036ZM266.037 166.277V202.437H291.427V196.142H272.848V166.277H266.037ZM307.771 202.437V166.277H301.015V202.437H307.771ZM329.901 202.437H336.716V172.469H348.17V166.277H318.452V172.469H329.931V202.437H329.901ZM383.985 195.733H363.702V187.583H383.261V181.239H363.702V172.872H383.985V166.277H356.941V202.437H383.985V195.733Z" fill="white"/>
<path fill-rule="evenodd" clip-rule="evenodd" d="M120.863 230.293C118.803 228.254 116.021 227.11 113.122 227.109C105.775 227.109 102.111 232.522 102.111 238.384C102.111 243.857 105.297 249 113.122 249C114.701 249.048 116.269 248.736 117.709 248.087C119.148 247.438 120.421 246.469 121.43 245.255V236.479H112.502V239.989H117.825V243.68C116.518 244.798 114.842 245.391 113.122 245.343C107.947 245.343 105.952 241.805 105.952 238.384C105.952 234.097 108.661 230.711 113.122 230.711C115.084 230.731 116.971 231.472 118.421 232.793L120.883 230.293H120.863ZM160.809 248.257L154.501 241.16C158.441 240.358 159.766 237.469 159.766 234.599C159.766 230.987 157.18 227.709 152.266 227.709C148.966 227.739 145.662 227.709 142.358 227.709V248.542H146.297V241.564H150.074L156.136 248.542H160.809V248.272V248.257ZM152.266 231.317C154.728 231.317 155.841 232.99 155.841 234.663C155.841 236.337 154.767 238.01 152.266 238.01H146.288V231.317H152.266ZM190.183 227.276C182.979 227.276 179.468 232.778 179.468 238.251C179.468 243.724 182.861 248.985 190.183 248.985C197.506 248.985 200.815 243.621 200.874 238.236C200.933 232.852 197.363 227.291 190.193 227.291L190.183 227.276ZM190.183 230.844C195.108 230.844 197.077 234.781 196.998 238.281C196.934 241.701 195.093 245.388 190.183 245.388C185.274 245.388 183.427 241.731 183.338 238.31C183.245 234.801 185.269 230.844 190.183 230.844ZM236.113 227.719V239.683C236.113 243.252 234.266 245.422 231.021 245.422C227.776 245.422 225.634 243.429 225.634 239.683V227.734H221.738V239.683C221.738 245.959 225.993 248.99 230.991 248.99C236.231 248.99 240.008 245.84 240.008 239.683V227.734L236.113 227.719ZM265.762 231.41H271.671C276.674 231.41 276.704 238.793 271.671 238.793H265.762V231.41ZM271.671 227.66C268.397 227.63 265.127 227.66 261.852 227.66V248.542H265.792V242.4H271.701C281.909 242.4 281.879 227.675 271.701 227.675L271.671 227.66Z" fill="white"/>
<path fill-rule="evenodd" clip-rule="evenodd" d="M0 239.836H90.5685V236.273H0V239.836ZM293.436 239.836H384V236.273H293.436V239.836Z" fill="white"/>
</g>
<defs>
<clipPath id="clip0_65_868">
<rect width="384" height="249" fill="white"/>
</clipPath>
</defs>
</svg>
