<svg width="22" height="24" viewBox="0 0 22 24" fill="none" xmlns="http://www.w3.org/2000/svg">
<path d="M20.7835 1.63059H11.3822V1.40128C11.3822 0.628594 10.7536 0 9.98095 0H8.35036C7.57772 0 6.94908 0.628594 6.94908 1.40128V1.63059H4.68155C4.47042 1.63059 4.29938 1.80169 4.29938 2.01277V5.09555H1.21664C1.00552 5.09555 0.834473 5.26664 0.834473 5.47772V19.745C0.834473 19.7577 0.835129 19.7704 0.836395 19.783C0.83691 19.7882 0.837895 19.7932 0.838598 19.7983C0.839629 19.8055 0.840473 19.8128 0.841926 19.82C0.843098 19.8261 0.844785 19.8319 0.846238 19.8378C0.847785 19.844 0.849145 19.8502 0.850973 19.8563C0.852754 19.8622 0.854957 19.8678 0.856973 19.8735C0.859129 19.8795 0.861145 19.8856 0.863582 19.8916C0.865832 19.8969 0.86841 19.9021 0.870848 19.9073C0.873707 19.9134 0.876379 19.9195 0.879566 19.9255C0.882285 19.9305 0.885332 19.9353 0.888238 19.9402C0.891707 19.946 0.895035 19.9519 0.898785 19.9575C0.902348 19.9629 0.906332 19.9679 0.910176 19.9731C0.913785 19.9779 0.91716 19.9829 0.921051 19.9876C0.928504 19.9966 0.936379 20.0053 0.944582 20.0136C0.945191 20.0142 0.945707 20.0149 0.946316 20.0155L4.81894 23.8882C4.81945 23.8887 4.82002 23.8891 4.82048 23.8895C4.82892 23.8979 4.83773 23.9059 4.84697 23.9135C4.85123 23.917 4.85578 23.92 4.86019 23.9234C4.86581 23.9275 4.87125 23.9319 4.87706 23.9358C4.88227 23.9393 4.8877 23.9423 4.893 23.9455C4.89834 23.9487 4.90359 23.9521 4.90912 23.955C4.91456 23.958 4.92023 23.9604 4.92586 23.9631C4.93158 23.9658 4.93716 23.9686 4.94302 23.9711C4.94845 23.9733 4.95408 23.9752 4.95961 23.9771C4.96584 23.9794 4.97194 23.9818 4.97827 23.9836C4.98389 23.9853 4.98952 23.9865 4.99519 23.988C5.00161 23.9896 5.00798 23.9914 5.0145 23.9926C5.02106 23.9939 5.02772 23.9947 5.03433 23.9956C5.04005 23.9964 5.04567 23.9976 5.05144 23.9981C5.06395 23.9993 5.07656 24 5.08912 24H16.2993C16.5104 24 16.6815 23.8289 16.6815 23.6178V21.9617H20.7834C20.9945 21.9617 21.1655 21.7906 21.1655 21.5796V2.01272C21.1656 1.80169 20.9946 1.63059 20.7835 1.63059ZM7.71342 1.40128C7.71342 1.05005 7.99912 0.764344 8.35036 0.764344H9.98095C10.3322 0.764344 10.6179 1.05005 10.6179 1.40128V1.63059H7.71342V1.40128ZM7.71342 5.85989H9.59878V7.74525H7.71342V5.85989ZM9.4702 8.50955C9.35386 8.66391 9.16964 8.76431 8.96189 8.76431H8.3504C8.14265 8.76431 7.95839 8.66386 7.84209 8.50955H9.4702ZM5.06377 2.39489H6.94912V5.09555H5.06377V2.39489ZM4.70709 21.5796V22.6952L2.13928 20.1274H4.68159H4.70709V21.5796ZM15.9172 21.5796V23.2357H5.47139V21.5796V19.7452C5.47139 19.5341 5.30034 19.363 5.08922 19.363H4.68159H1.59882V5.85989H4.68159H6.94912V7.74525H4.68159H3.8663C3.65517 7.74525 3.48413 7.91634 3.48413 8.12742C3.48413 8.3385 3.65517 8.50959 3.8663 8.50959H4.68159H7.00251C7.16934 9.09698 7.71023 9.5287 8.3504 9.5287H8.96189C9.60206 9.5287 10.1429 9.09703 10.3098 8.50959H13.8536C14.0647 8.50959 14.2358 8.3385 14.2358 8.12742C14.2358 7.91634 14.0647 7.74525 13.8536 7.74525H10.3632V5.85989H15.9173V21.5796H15.9172ZM20.4013 21.1974H16.6816V5.47772C16.6816 5.26664 16.5105 5.09555 16.2994 5.09555H10.3631V3.23569C10.3631 3.02461 10.1921 2.85352 9.98095 2.85352C9.76982 2.85352 9.59878 3.02461 9.59878 3.23569V5.09555H7.71342V2.39489H20.4013V21.1974H20.4013Z" fill="#003F79"/>
</svg>
