<svg width="154" height="38" viewBox="0 0 154 38" fill="none" xmlns="http://www.w3.org/2000/svg">
<g clip-path="url(#clip0_398_374)">
<path fill-rule="evenodd" clip-rule="evenodd" d="M10.0007 4.81958V13.1211C10.0007 15.6076 8.71903 17.1197 6.46176 17.1197C4.20449 17.1197 2.70952 15.7361 2.70952 13.1211V4.81958H0V13.1211C0 17.4913 2.9623 19.6042 6.43806 19.6042C10.0797 19.6042 12.7083 17.4083 12.7083 13.1211V4.81958H10.0007ZM26.8029 13.7833L19.7052 4.77808H17.4894V19.2998H20.2226V9.50798L27.8456 19.2998H29.542V4.77808H26.8029V13.7833ZM36.6772 19.2998V4.77808H33.9677V19.2998H36.6772ZM45.5522 19.2998H48.2855V7.26458H52.881V4.77808H40.9528V7.26458H45.5463V19.2998H45.5522ZM67.2343 16.6078H59.0998V13.3346H66.9479V10.7868H59.0998V7.42666H67.2343V4.77808H56.3883V19.2998H67.2343V16.6078ZM76.7512 4.77808H71.0596V19.2998H76.7512C81.8206 19.2998 84.0582 15.5918 83.995 11.9154C83.9338 8.32006 81.718 4.77808 76.7512 4.77808ZM73.7711 7.37725H76.7512C79.8971 7.37725 81.2223 9.63843 81.2835 11.9036C81.3447 14.2754 80.0413 16.6789 76.7512 16.6789H73.7711V7.37725ZM102.681 16.6078H94.5467V13.3346H102.391V10.7868H94.5467V7.42666H102.681V4.77808H91.8312V19.2998H102.677V16.6078H102.681ZM106.692 4.77808V19.2998H116.875V16.7718H109.423V4.77808H106.692ZM123.429 19.2998V4.77808H120.72V19.2998H123.429ZM132.304 19.2998H135.037V7.26458H139.631V4.77808H127.713V7.26458H132.316V19.2998H132.304ZM153.994 16.6078H145.86V13.3346H153.704V10.7868H145.86V7.42666H153.994V4.77808H143.148V19.2998H153.994V16.6078Z" fill="white"/>
<path fill-rule="evenodd" clip-rule="evenodd" d="M48.4715 30.4871C47.6453 29.6682 46.5297 29.2086 45.367 29.2083C42.4205 29.2083 40.9512 31.3825 40.9512 33.7366C40.9512 35.9345 42.2289 38 45.367 38C46 38.0193 46.6291 37.8939 47.2064 37.6332C47.7837 37.3726 48.2941 36.9836 48.6986 36.4958V32.9716H45.1181V34.3809H47.253V35.8633C46.7288 36.3123 46.0567 36.5504 45.367 36.5314C43.2914 36.5314 42.4916 35.1103 42.4916 33.7366C42.4916 32.015 43.5777 30.6551 45.367 30.6551C46.1539 30.6629 46.9104 30.9605 47.4919 31.4912L48.4794 30.4871H48.4715ZM64.4916 37.7015L61.9618 34.8513C63.5417 34.5292 64.0729 33.3689 64.0729 32.2166C64.0729 30.7658 63.0361 29.4494 61.0652 29.4494C59.742 29.4613 58.4169 29.4494 57.0918 29.4494V37.8162H58.6716V35.0134H60.1864L62.6174 37.8162H64.4916V37.7075V37.7015ZM61.0652 30.8982C62.0526 30.8982 62.4989 31.5702 62.4989 32.2423C62.4989 32.9143 62.0684 33.5863 61.0652 33.5863H58.6677V30.8982H61.0652ZM76.2717 29.2755C73.3824 29.2755 71.9744 31.4852 71.9744 33.6832C71.9744 35.8811 73.335 37.9941 76.2717 37.9941C79.2083 37.9941 80.5354 35.8396 80.5591 33.6773C80.5828 31.5149 79.151 29.2814 76.2756 29.2814L76.2717 29.2755ZM76.2717 30.7085C78.2465 30.7085 79.0365 32.2897 79.0049 33.695C78.9792 35.0688 78.2406 36.5492 76.2717 36.5492C74.3027 36.5492 73.5621 35.0806 73.5266 33.7069C73.4891 32.2976 74.3007 30.7085 76.2717 30.7085ZM94.6912 29.4533V34.2584C94.6912 35.6914 93.9507 36.563 92.6492 36.563C91.3478 36.563 90.4887 35.7625 90.4887 34.2584V29.4593H88.9266V34.2584C88.9266 36.7785 90.6329 37.996 92.6374 37.996C94.7386 37.996 96.2534 36.731 96.2534 34.2584V29.4593L94.6912 29.4533ZM106.582 30.9358H108.952C110.958 30.9358 110.97 33.9006 108.952 33.9006H106.582V30.9358ZM108.952 29.4296C107.638 29.4178 106.327 29.4296 105.014 29.4296V37.8162H106.594V35.3494H108.964C113.058 35.3494 113.046 29.4356 108.964 29.4356L108.952 29.4296Z" fill="white"/>
<path fill-rule="evenodd" clip-rule="evenodd" d="M0 34.3197H36.3217V32.8887H0V34.3197ZM117.68 34.3197H154V32.8887H117.68V34.3197Z" fill="white"/>
</g>
<defs>
<clipPath id="clip0_398_374">
<rect width="154" height="38" fill="white"/>
</clipPath>
</defs>
</svg>
