<svg width="22" height="14" viewBox="0 0 22 14" fill="none" xmlns="http://www.w3.org/2000/svg">
<path d="M14.25 12C14.6642 12 15 12.3358 15 12.75C15 13.1642 14.6642 13.5 14.25 13.5H7.75C7.33579 13.5 7 13.1642 7 12.75C7 12.3358 7.33579 12 7.75 12H14.25ZM18.25 6C18.6642 6 19 6.33579 19 6.75C19 7.16421 18.6642 7.5 18.25 7.5H3.75C3.33579 7.5 3 7.16421 3 6.75C3 6.33579 3.33579 6 3.75 6H18.25ZM21.25 0C21.6642 0 22 0.335786 22 0.75C22 1.16421 21.6642 1.5 21.25 1.5H0.75C0.335786 1.5 0 1.16421 0 0.75C0 0.335786 0.335786 0 0.75 0H21.25Z" fill="#212121"/>
</svg>
